<svg width="918.125px" height="364.6400146484375px" xmlns="http://www.w3.org/2000/svg" viewBox="-209.0625 -107.32000732421875 918.125 364.6400146484375" style="background: none;" preserveAspectRatio="xMidYMid"><defs><filter id="editing-hole" x="-100%" y="-100%" width="300%" height="300%"><feFlood flood-color="#ffffff" result="black"></feFlood><feMorphology operator="dilate" radius="2" in="SourceGraphic" result="erode"></feMorphology><feGaussianBlur in="erode" stdDeviation="4" result="blur"></feGaussianBlur><feOffset in="blur" dx="2" dy="2" result="offset"></feOffset><feComposite operator="atop" in="offset" in2="black" result="merge"></feComposite><feComposite operator="in" in="merge" in2="SourceGraphic" result="inner-shadow"></feComposite></filter></defs><g filter="url(#editing-hole)"><g transform="translate(-81.12999629974365, 127.41500091552734)"><path d="M87.41-76.61L87.41-0.58L87.41-0.58Q85.82-0.14 82.44 0.29L82.44 0.29L82.44 0.29Q79.06 0.72 75.74 0.72L75.74 0.72L75.74 0.72Q72.43 0.72 69.91 0.22L69.91 0.22L69.91 0.22Q67.39-0.29 65.66-1.58L65.66-1.58L65.66-1.58Q63.94-2.88 63.07-5.18L63.07-5.18L63.07-5.18Q62.21-7.49 62.21-11.23L62.21-11.23L62.21-33.70L34.56-33.70L34.56-0.58L34.56-0.58Q32.98-0.14 29.59 0.29L29.59 0.29L29.59 0.29Q26.21 0.72 22.90 0.72L22.90 0.72L22.90 0.72Q19.58 0.72 17.06 0.22L17.06 0.22L17.06 0.22Q14.54-0.29 12.82-1.58L12.82-1.58L12.82-1.58Q11.09-2.88 10.22-5.18L10.22-5.18L10.22-5.18Q9.36-7.49 9.36-11.23L9.36-11.23L9.36-87.26L9.36-87.26Q10.94-87.55 14.40-88.06L14.40-88.06L14.40-88.06Q17.86-88.56 21.02-88.56L21.02-88.56L21.02-88.56Q24.34-88.56 26.86-88.06L26.86-88.06L26.86-88.06Q29.38-87.55 31.10-86.26L31.10-86.26L31.10-86.26Q32.83-84.96 33.70-82.66L33.70-82.66L33.70-82.66Q34.56-80.35 34.56-76.61L34.56-76.61L34.56-53.57L62.21-53.57L62.21-87.26L62.21-87.26Q63.79-87.55 67.25-88.06L67.25-88.06L67.25-88.06Q70.70-88.56 73.87-88.56L73.87-88.56L73.87-88.56Q77.18-88.56 79.70-88.06L79.70-88.06L79.70-88.06Q82.22-87.55 83.95-86.26L83.95-86.26L83.95-86.26Q85.68-84.96 86.54-82.66L86.54-82.66L86.54-82.66Q87.41-80.35 87.41-76.61L87.41-76.61ZM103.68-89.42L103.68-89.42L103.68-89.42Q103.68-94.90 107.35-98.64L107.35-98.64L107.35-98.64Q111.02-102.38 117.07-102.38L117.07-102.38L117.07-102.38Q123.12-102.38 126.79-98.64L126.79-98.64L126.79-98.64Q130.46-94.90 130.46-89.42L130.46-89.42L130.46-89.42Q130.46-83.95 126.79-80.21L126.79-80.21L126.79-80.21Q123.12-76.46 117.07-76.46L117.07-76.46L117.07-76.46Q111.02-76.46 107.35-80.21L107.35-80.21L107.35-80.21Q103.68-83.95 103.68-89.42ZM129.31-58.75L129.31-0.14L129.31-0.14Q127.73 0.14 124.63 0.65L124.63 0.65L124.63 0.65Q121.54 1.15 118.37 1.15L118.37 1.15L118.37 1.15Q115.20 1.15 112.68 0.72L112.68 0.72L112.68 0.72Q110.16 0.29 108.43-1.01L108.43-1.01L108.43-1.01Q106.70-2.30 105.77-4.54L105.77-4.54L105.77-4.54Q104.83-6.77 104.83-10.37L104.83-10.37L104.83-68.98L104.83-68.98Q106.42-69.26 109.51-69.77L109.51-69.77L109.51-69.77Q112.61-70.27 115.78-70.27L115.78-70.27L115.78-70.27Q118.94-70.27 121.46-69.84L121.46-69.84L121.46-69.84Q123.98-69.41 125.71-68.11L125.71-68.11L125.71-68.11Q127.44-66.82 128.38-64.58L128.38-64.58L128.38-64.58Q129.31-62.35 129.31-58.75L129.31-58.75ZM178.42-72.14L178.42-72.14L178.42-72.14Q184.32-72.14 190.01-70.49L190.01-70.49L190.01-70.49Q195.70-68.83 199.87-65.52L199.87-65.52L199.87-65.52Q204.19-68.40 209.59-70.27L209.59-70.27L209.59-70.27Q214.99-72.14 222.62-72.14L222.62-72.14L222.62-72.14Q228.10-72.14 233.35-70.70L233.35-70.70L233.35-70.70Q238.61-69.26 242.71-66.17L242.71-66.17L242.71-66.17Q246.82-63.07 249.26-57.96L249.26-57.96L249.26-57.96Q251.71-52.85 251.71-45.50L251.71-45.50L251.71-0.14L251.71-0.14Q250.27 0.29 247.18 0.72L247.18 0.72L247.18 0.72Q244.08 1.15 240.77 1.15L240.77 1.15L240.77 1.15Q237.60 1.15 235.08 0.72L235.08 0.72L235.08 0.72Q232.56 0.29 230.83-1.01L230.83-1.01L230.83-1.01Q229.10-2.30 228.17-4.54L228.17-4.54L228.17-4.54Q227.23-6.77 227.23-10.37L227.23-10.37L227.23-44.78L227.23-44.78Q227.23-49.10 224.78-51.05L224.78-51.05L224.78-51.05Q222.34-52.99 218.16-52.99L218.16-52.99L218.16-52.99Q216.14-52.99 213.84-52.06L213.84-52.06L213.84-52.06Q211.54-51.12 210.38-50.11L210.38-50.11L210.38-50.11Q210.53-49.54 210.53-49.03L210.53-49.03L210.53-49.03Q210.53-48.53 210.53-48.10L210.53-48.10L210.53-0.14L210.53-0.14Q208.94 0.29 205.85 0.72L205.85 0.72L205.85 0.72Q202.75 1.15 199.58 1.15L199.58 1.15L199.58 1.15Q196.42 1.15 193.90 0.72L193.90 0.72L193.90 0.72Q191.38 0.29 189.65-1.01L189.65-1.01L189.65-1.01Q187.92-2.30 186.98-4.54L186.98-4.54L186.98-4.54Q186.05-6.77 186.05-10.37L186.05-10.37L186.05-44.78L186.05-44.78Q186.05-49.10 183.38-51.05L183.38-51.05L183.38-51.05Q180.72-52.99 176.98-52.99L176.98-52.99L176.98-52.99Q174.38-52.99 172.51-52.20L172.51-52.20L172.51-52.20Q170.64-51.41 169.34-50.69L169.34-50.69L169.34-0.14L169.34-0.14Q167.90 0.29 164.81 0.72L164.81 0.72L164.81 0.72Q161.71 1.15 158.40 1.15L158.40 1.15L158.40 1.15Q155.23 1.15 152.71 0.72L152.71 0.72L152.71 0.72Q150.19 0.29 148.46-1.01L148.46-1.01L148.46-1.01Q146.74-2.30 145.80-4.54L145.80-4.54L145.80-4.54Q144.86-6.77 144.86-10.37L144.86-10.37L144.86-53.86L144.86-53.86Q144.86-57.74 146.52-60.05L146.52-60.05L146.52-60.05Q148.18-62.35 151.06-64.37L151.06-64.37L151.06-64.37Q155.95-67.82 163.22-69.98L163.22-69.98L163.22-69.98Q170.50-72.14 178.42-72.14ZM296.64-15.55L296.64-15.55L296.64-15.55Q299.09-15.55 302.04-16.06L302.04-16.06L302.04-16.06Q304.99-16.56 306.43-17.42L306.43-17.42L306.43-28.94L296.06-28.08L296.06-28.08Q292.03-27.79 289.44-26.35L289.44-26.35L289.44-26.35Q286.85-24.91 286.85-22.03L286.85-22.03L286.85-22.03Q286.85-19.15 289.08-17.35L289.08-17.35L289.08-17.35Q291.31-15.55 296.64-15.55ZM295.49-72.14L295.49-72.14L295.49-72.14Q303.26-72.14 309.67-70.56L309.67-70.56L309.67-70.56Q316.08-68.98 320.62-65.74L320.62-65.74L320.62-65.74Q325.15-62.50 327.60-57.53L327.60-57.53L327.60-57.53Q330.05-52.56 330.05-45.79L330.05-45.79L330.05-13.54L330.05-13.54Q330.05-9.79 327.96-7.42L327.96-7.42L327.96-7.42Q325.87-5.04 322.99-3.31L322.99-3.31L322.99-3.31Q313.63 2.30 296.64 2.30L296.64 2.30L296.64 2.30Q289.01 2.30 282.89 0.86L282.89 0.86L282.89 0.86Q276.77-0.58 272.38-3.46L272.38-3.46L272.38-3.46Q267.98-6.34 265.61-10.80L265.61-10.80L265.61-10.80Q263.23-15.26 263.23-21.17L263.23-21.17L263.23-21.17Q263.23-31.10 269.14-36.43L269.14-36.43L269.14-36.43Q275.04-41.76 287.42-43.06L287.42-43.06L306.29-45.07L306.29-46.08L306.29-46.08Q306.29-50.26 302.62-52.06L302.62-52.06L302.62-52.06Q298.94-53.86 292.03-53.86L292.03-53.86L292.03-53.86Q286.56-53.86 281.38-52.70L281.38-52.70L281.38-52.70Q276.19-51.55 272.02-49.82L272.02-49.82L272.02-49.82Q270.14-51.12 268.85-53.78L268.85-53.78L268.85-53.78Q267.55-56.45 267.55-59.33L267.55-59.33L267.55-59.33Q267.55-63.07 269.35-65.30L269.35-65.30L269.35-65.30Q271.15-67.54 274.90-69.12L274.90-69.12L274.90-69.12Q279.07-70.70 284.76-71.42L284.76-71.42L284.76-71.42Q290.45-72.14 295.49-72.14ZM389.38-10.37L389.38-44.35L389.38-44.35Q389.38-48.82 386.86-50.90L386.86-50.90L386.86-50.90Q384.34-52.99 380.02-52.99L380.02-52.99L380.02-52.99Q377.14-52.99 374.33-52.27L374.33-52.27L374.33-52.27Q371.52-51.55 369.50-50.11L369.50-50.11L369.50-0.14L369.50-0.14Q368.06 0.29 364.97 0.72L364.97 0.72L364.97 0.72Q361.87 1.15 358.56 1.15L358.56 1.15L358.56 1.15Q355.39 1.15 352.87 0.72L352.87 0.72L352.87 0.72Q350.35 0.29 348.62-1.01L348.62-1.01L348.62-1.01Q346.90-2.30 345.96-4.54L345.96-4.54L345.96-4.54Q345.02-6.77 345.02-10.37L345.02-10.37L345.02-53.57L345.02-53.57Q345.02-57.46 346.68-59.90L346.68-59.90L346.68-59.90Q348.34-62.35 351.22-64.37L351.22-64.37L351.22-64.37Q356.11-67.82 363.53-69.98L363.53-69.98L363.53-69.98Q370.94-72.14 380.02-72.14L380.02-72.14L380.02-72.14Q396.29-72.14 405.07-65.02L405.07-65.02L405.07-65.02Q413.86-57.89 413.86-45.22L413.86-45.22L413.86-0.14L413.86-0.14Q412.42 0.29 409.32 0.72L409.32 0.72L409.32 0.72Q406.22 1.15 402.91 1.15L402.91 1.15L402.91 1.15Q399.74 1.15 397.22 0.72L397.22 0.72L397.22 0.72Q394.70 0.29 392.98-1.01L392.98-1.01L392.98-1.01Q391.25-2.30 390.31-4.54L390.31-4.54L390.31-4.54Q389.38-6.77 389.38-10.37L389.38-10.37ZM488.02-20.88L488.02-20.88L488.02-20.88Q488.02-9.94 479.81-3.74L479.81-3.74L479.81-3.74Q471.60 2.45 455.62 2.45L455.62 2.45L455.62 2.45Q449.57 2.45 444.38 1.58L444.38 1.58L444.38 1.58Q439.20 0.72 435.53-1.08L435.53-1.08L435.53-1.08Q431.86-2.88 429.77-5.62L429.77-5.62L429.77-5.62Q427.68-8.35 427.68-12.10L427.68-12.10L427.68-12.10Q427.68-15.55 429.12-17.93L429.12-17.93L429.12-17.93Q430.56-20.30 432.58-21.89L432.58-21.89L432.58-21.89Q436.75-19.58 442.15-17.78L442.15-17.78L442.15-17.78Q447.55-15.98 454.61-15.98L454.61-15.98L454.61-15.98Q459.07-15.98 461.45-17.28L461.45-17.28L461.45-17.28Q463.82-18.58 463.82-20.74L463.82-20.74L463.82-20.74Q463.82-22.75 462.10-23.90L462.10-23.90L462.10-23.90Q460.37-25.06 456.34-25.78L456.34-25.78L452.02-26.64L452.02-26.64Q439.49-29.09 433.37-34.34L433.37-34.34L433.37-34.34Q427.25-39.60 427.25-49.39L427.25-49.39L427.25-49.39Q427.25-54.72 429.55-59.04L429.55-59.04L429.55-59.04Q431.86-63.36 436.03-66.24L436.03-66.24L436.03-66.24Q440.21-69.12 446.04-70.70L446.04-70.70L446.04-70.70Q451.87-72.29 458.93-72.29L458.93-72.29L458.93-72.29Q464.26-72.29 468.94-71.50L468.94-71.50L468.94-71.50Q473.62-70.70 477.07-69.12L477.07-69.12L477.07-69.12Q480.53-67.54 482.54-65.02L482.54-65.02L482.54-65.02Q484.56-62.50 484.56-59.04L484.56-59.04L484.56-59.04Q484.56-55.73 483.34-53.35L483.34-53.35L483.34-53.35Q482.11-50.98 480.24-49.39L480.24-49.39L480.24-49.39Q479.09-50.11 476.78-50.90L476.78-50.90L476.78-50.90Q474.48-51.70 471.74-52.34L471.74-52.34L471.74-52.34Q469.01-52.99 466.20-53.42L466.20-53.42L466.20-53.42Q463.39-53.86 461.09-53.86L461.09-53.86L461.09-53.86Q456.34-53.86 453.74-52.78L453.74-52.78L453.74-52.78Q451.15-51.70 451.15-49.39L451.15-49.39L451.15-49.39Q451.15-47.81 452.59-46.80L452.59-46.80L452.59-46.80Q454.03-45.79 458.06-44.93L458.06-44.93L462.53-43.92L462.53-43.92Q476.35-40.75 482.18-35.21L482.18-35.21L482.18-35.21Q488.02-29.66 488.02-20.88ZM568.94-43.78L568.94-0.14L568.94-0.14Q567.50 0.29 564.41 0.72L564.41 0.72L564.41 0.72Q561.31 1.15 558.00 1.15L558.00 1.15L558.00 1.15Q554.83 1.15 552.31 0.72L552.31 0.72L552.31 0.72Q549.79 0.29 548.06-1.01L548.06-1.01L548.06-1.01Q546.34-2.30 545.40-4.54L545.40-4.54L545.40-4.54Q544.46-6.77 544.46-10.37L544.46-10.37L544.46-42.34L544.46-42.34Q544.46-48.24 541.51-50.62L541.51-50.62L541.51-50.62Q538.56-52.99 534.24-52.99L534.24-52.99L534.24-52.99Q531.36-52.99 528.77-52.27L528.77-52.27L528.77-52.27Q526.18-51.55 524.59-50.54L524.59-50.54L524.59-0.14L524.59-0.14Q523.15 0.29 520.06 0.72L520.06 0.72L520.06 0.72Q516.96 1.15 513.65 1.15L513.65 1.15L513.65 1.15Q510.48 1.15 507.96 0.72L507.96 0.72L507.96 0.72Q505.44 0.29 503.71-1.01L503.71-1.01L503.71-1.01Q501.98-2.30 501.05-4.54L501.05-4.54L501.05-4.54Q500.11-6.77 500.11-10.37L500.11-10.37L500.11-93.89L500.11-93.89Q501.70-94.18 504.79-94.68L504.79-94.68L504.79-94.68Q507.89-95.18 511.06-95.18L511.06-95.18L511.06-95.18Q514.22-95.18 516.74-94.75L516.74-94.75L516.74-94.75Q519.26-94.32 520.99-93.02L520.99-93.02L520.99-93.02Q522.72-91.73 523.66-89.50L523.66-89.50L523.66-89.50Q524.59-87.26 524.59-83.66L524.59-83.66L524.59-69.55L524.59-69.55Q526.46-70.27 530.28-71.21L530.28-71.21L530.28-71.21Q534.10-72.14 538.70-72.14L538.70-72.14L538.70-72.14Q552.96-72.14 560.95-65.02L560.95-65.02L560.95-65.02Q568.94-57.89 568.94-43.78L568.94-43.78ZM584.06-27.79L584.06-68.98L584.06-68.98Q585.50-69.41 588.60-69.84L588.60-69.84L588.60-69.84Q591.70-70.27 595.01-70.27L595.01-70.27L595.01-70.27Q598.18-70.27 600.70-69.84L600.70-69.84L600.70-69.84Q603.22-69.41 604.94-68.11L604.94-68.11L604.94-68.11Q606.67-66.82 607.61-64.58L607.61-64.58L607.61-64.58Q608.54-62.35 608.54-58.75L608.54-58.75L608.54-27.79L608.54-27.79Q608.54-21.89 611.42-19.37L611.42-19.37L611.42-19.37Q614.30-16.85 619.78-16.85L619.78-16.85L619.78-16.85Q623.09-16.85 625.18-17.42L625.18-17.42L625.18-17.42Q627.26-18.00 628.42-18.58L628.42-18.58L628.42-68.98L628.42-68.98Q629.86-69.41 632.95-69.84L632.95-69.84L632.95-69.84Q636.05-70.27 639.36-70.27L639.36-70.27L639.36-70.27Q642.53-70.27 645.05-69.84L645.05-69.84L645.05-69.84Q647.57-69.41 649.30-68.11L649.30-68.11L649.30-68.11Q651.02-66.82 651.96-64.58L651.96-64.58L651.96-64.58Q652.90-62.35 652.90-58.75L652.90-58.75L652.90-14.98L652.90-14.98Q652.90-7.78 646.85-4.18L646.85-4.18L646.85-4.18Q641.81-1.01 634.82 0.65L634.82 0.65L634.82 0.65Q627.84 2.30 619.63 2.30L619.63 2.30L619.63 2.30Q611.86 2.30 605.30 0.58L605.30 0.58L605.30 0.58Q598.75-1.15 594-4.75L594-4.75L594-4.75Q589.25-8.35 586.66-14.04L586.66-14.04L586.66-14.04Q584.06-19.73 584.06-27.79L584.06-27.79Z" fill="#ffffff"></path></g></g><style>text {
  font-size: 64px;
  font-family: Arial Black;
  dominant-baseline: central;
  text-anchor: middle;
}</style></svg>